<?xml version="1.0" standalone="no"?>
<!DOCTYPE svg PUBLIC "-//W3C//DTD SVG 20010904//EN"
 "http://www.w3.org/TR/2001/REC-SVG-20010904/DTD/svg10.dtd">
<svg version="1.0" xmlns="http://www.w3.org/2000/svg"
 width="400.000000pt" height="400.000000pt" viewBox="0 0 400.000000 400.000000"
 preserveAspectRatio="xMidYMid meet">
<metadata>
Created by potrace 1.14, written by Peter Selinger 2001-2017
</metadata>
<g transform="translate(0.000000,400.000000) scale(0.100000,-0.100000)"
fill="#000000" stroke="none">
<path d="M430 3624 c0 -2 53 -38 118 -80 501 -327 807 -715 845 -1071 5 -49
10 -46 -93 -44 -114 3 -264 37 -345 78 -97 50 -231 165 -322 277 -32 39 -32
39 -27 11 57 -313 188 -652 332 -854 95 -134 242 -257 370 -311 35 -15 64 -29
65 -31 4 -8 -39 -54 -73 -80 -135 -98 -257 -129 -502 -126 l-168 2 28 -23 c83
-72 127 -109 146 -122 12 -8 26 -18 31 -23 60 -49 286 -198 375 -246 183 -98
402 -192 519 -222 28 -7 51 -16 51 -20 0 -3 -21 -23 -47 -43 -59 -46 -185
-108 -278 -137 -80 -25 -75 -23 -138 -34 -27 -4 -45 -11 -40 -15 14 -15 263
-110 429 -166 145 -48 416 -121 519 -139 198 -35 280 -43 435 -44 127 -1 236
7 305 22 17 4 41 9 55 11 85 15 216 67 309 122 94 57 229 185 276 264 76 128
142 296 161 407 2 15 7 39 9 53 3 14 8 36 10 50 7 33 18 219 18 300 0 73 -11
274 -17 306 -2 11 -7 45 -10 75 -6 57 -13 100 -21 136 -3 12 -7 40 -10 64 -3
23 -7 45 -9 48 -3 4 -7 27 -11 51 -10 66 -89 378 -129 505 -32 105 -35 109
-45 81 -22 -55 -104 -167 -166 -224 -60 -56 -148 -120 -247 -177 -44 -24 -48
-25 -49 -8 -5 106 -97 487 -149 618 -4 11 -18 47 -31 80 -83 221 -229 427
-375 531 -59 42 -171 100 -179 92 -2 -2 9 -30 25 -63 67 -137 98 -289 94 -465
-3 -172 -44 -347 -109 -461 -14 -24 -30 -55 -36 -69 -11 -25 -12 -24 -38 30
-47 99 -99 181 -161 254 -45 54 -115 131 -135 149 -11 10 -38 35 -60 55 -324
300 -870 550 -1330 608 -106 13 -175 20 -175 18z m2567 -1869 c190 -44 367
-180 460 -355 26 -48 51 -109 54 -132 0 -4 6 -27 13 -50 19 -64 19 -212 2
-296 -78 -364 -426 -609 -791 -558 -83 12 -126 26 -223 74 -290 142 -443 472
-368 795 30 127 104 255 203 347 62 58 67 62 151 109 144 81 330 105 499 66z"/>
</g>
</svg>
